# xmcd
#
# Track frame offsets:
#	150
#	41985
#	91448
#	127213
#	155145
#	180187
#	204527
#	255477
#	300107
#
# Disc length: 4548 seconds
#
# Revision: 1
# Processed by: cddbd v1.5.2PL0 Copyright (c) Steve Scherf et al.
#
# Submitted via: freedbSubmitter v2.1
#
DISCID=7411c209
DTITLE=Dizzy Gillespie - Milestones of a Legend (1948-1961) CD04
DYEAR=2017
DGENRE=Jazz
TTITLE0=I've Found A New Baby
TTITLE1=I Can't Get Started
TTITLE2=Trumpet Blues
TTITLE3=Algo Bueno
TTITLE4=Pretty Eyed Baby
TTITLE5=Sometimes I'm Happy
TTITLE6=Ballad Medley
TTITLE7=Limehouse Blues
TTITLE8=Blue Moon
EXTD=YEAR: 1954
EXTT0=
EXTT1=
EXTT2=
EXTT3=
EXTT4=
EXTT5=
EXTT6=
EXTT7=
EXTT8=
PLAYORDER=
